<?xml version="1.0" standalone="no"?>
<!DOCTYPE svg PUBLIC "-//W3C//DTD SVG 20010904//EN"
 "http://www.w3.org/TR/2001/REC-SVG-20010904/DTD/svg10.dtd">
<svg version="1.0" xmlns="http://www.w3.org/2000/svg"
 width="423.000000pt" height="423.000000pt" viewBox="0 0 423.000000 423.000000"
 preserveAspectRatio="xMidYMid meet">
<metadata>
Created by potrace 1.11, written by Peter Selinger 2001-2013
</metadata>
<g transform="translate(0.000000,423.000000) scale(0.100000,-0.100000)"
fill="#000000" stroke="none">
<path d="M4190 4220 c-14 -4 -185 -58 -380 -119 -535 -169 -574 -181 -590
-191 -12 -7 -9 -16 16 -47 72 -89 119 -104 359 -118 136 -7 168 -42 180 -195
11 -153 43 -224 114 -259 l40 -19 10 27 c6 14 63 202 126 416 154 517 153 515
152 514 -1 0 -13 -4 -27 -9z"/>
<path d="M1308 2472 c-1005 -1007 -1250 -1257 -1269 -1297 -35 -73 -34 -199 3
-270 23 -44 179 -215 196 -215 4 0 539 532 1188 1183 914 914 1188 1194 1212
1237 60 109 79 246 52 365 -15 66 -63 162 -103 207 l-33 37 -1246 -1247z"/>
<path d="M3252 2689 c-58 -11 -145 -52 -192 -89 -21 -17 -563 -555 -1205
-1197 -1008 -1008 -1164 -1168 -1153 -1181 40 -50 169 -165 203 -182 101 -49
237 -38 321 25 17 13 585 578 1262 1255 l1232 1232 -23 22 c-53 49 -141 94
-222 116 -47 12 -161 12 -223 -1z"/>
</g>
</svg>
